<svg width="100" height="100" viewBox="0 0 100 100" fill="none" xmlns="http://www.w3.org/2000/svg">
<rect x="7" y="53" width="87" height="2" fill="#757575"/>
<rect x="7" y="67" width="87" height="2" fill="#757575"/>
<rect x="7" y="51" width="87" height="1" fill="#FB5C5C"/>
<rect x="7" y="70" width="87" height="1" fill="#FB5C5C"/>
<path d="M20.918 66.0879C20.7617 66.0879 20.5918 66.0742 20.4082 66.0469C20.2285 66.0234 20.0469 65.9707 19.8633 65.8887C19.6836 65.8066 19.5098 65.6914 19.3418 65.543C19.1777 65.3906 19.0312 65.1914 18.9023 64.9453C18.7773 64.6992 18.6758 64.3965 18.5977 64.0371C18.5234 63.6738 18.4863 63.2422 18.4863 62.7422V59.1973C18.4863 58.6934 18.5254 58.2637 18.6035 57.9082C18.6816 57.5488 18.7852 57.248 18.9141 57.0059C19.043 56.7598 19.1914 56.5645 19.3594 56.4199C19.5273 56.2754 19.7012 56.166 19.8809 56.0918C20.0605 56.0137 20.2383 55.9629 20.4141 55.9395C20.5938 55.916 20.7598 55.9043 20.9121 55.9043C21.3105 55.9043 21.6426 55.9609 21.9082 56.0742C22.1777 56.1836 22.3926 56.3359 22.5527 56.5312C22.7168 56.7227 22.832 56.9473 22.8984 57.2051C22.9688 57.4629 23.0039 57.7363 23.0039 58.0254C23.0039 58.2402 22.9922 58.4395 22.9688 58.623C22.9492 58.8027 22.918 59.002 22.875 59.2207H21.6445V58.7109C21.6445 58.1602 21.584 57.748 21.4629 57.4746C21.3418 57.2012 21.1641 57.0645 20.9297 57.0645C20.7891 57.0645 20.666 57.0918 20.5605 57.1465C20.4551 57.2012 20.3672 57.2949 20.2969 57.4277C20.2266 57.5566 20.1719 57.7285 20.1328 57.9434C20.0977 58.1582 20.0801 58.4258 20.0801 58.7461V63.3164C20.0801 63.6289 20.0938 63.8887 20.1211 64.0957C20.1523 64.3027 20.2012 64.4688 20.2676 64.5938C20.334 64.7188 20.4199 64.8086 20.5254 64.8633C20.6348 64.9141 20.7656 64.9395 20.918 64.9395C21.0156 64.9395 21.1094 64.918 21.1992 64.875C21.2891 64.8281 21.3672 64.7578 21.4336 64.6641C21.5039 64.5664 21.5586 64.4453 21.5977 64.3008C21.6406 64.1523 21.6621 63.9785 21.6621 63.7793V62.8008H23.0508V63.7266C23.0508 64.5312 22.8672 65.125 22.5 65.5078C22.1328 65.8906 21.6055 66.084 20.918 66.0879ZM25.2656 66.0879C25.0156 66.0879 24.793 66.0391 24.5977 65.9414C24.4062 65.8398 24.2441 65.7031 24.1113 65.5312C23.9785 65.3594 23.877 65.1562 23.8066 64.9219C23.7402 64.6836 23.707 64.4258 23.707 64.1484C23.707 63.8164 23.748 63.5215 23.8301 63.2637C23.9121 63.0059 24.0312 62.7734 24.1875 62.5664C24.3477 62.3594 24.5449 62.1719 24.7793 62.0039C25.0137 61.832 25.2852 61.6699 25.5938 61.5176C25.7422 61.4434 25.9082 61.3691 26.0918 61.2949C26.2793 61.2168 26.4453 61.1504 26.5898 61.0957V60.0293C26.5898 59.873 26.584 59.7285 26.5723 59.5957C26.5605 59.459 26.5312 59.3418 26.4844 59.2441C26.4414 59.1426 26.375 59.0645 26.2852 59.0098C26.1953 58.9512 26.0723 58.9219 25.916 58.9219C25.8105 58.9219 25.707 58.9414 25.6055 58.9805C25.5078 59.0195 25.4199 59.0859 25.3418 59.1797C25.2676 59.2734 25.207 59.3984 25.1602 59.5547C25.1172 59.7109 25.0957 59.9043 25.0957 60.1348V60.4863H23.9648C23.9297 60.334 23.9023 60.1953 23.8828 60.0703C23.8672 59.9414 23.8594 59.8145 23.8594 59.6895C23.8594 59.3887 23.9102 59.123 24.0117 58.8926C24.1172 58.6621 24.2617 58.4688 24.4453 58.3125C24.6328 58.1562 24.8555 58.0391 25.1133 57.9609C25.3711 57.8789 25.6543 57.8379 25.9629 57.8379C26.3652 57.8379 26.6992 57.8828 26.9648 57.9727C27.2305 58.0586 27.4414 58.1895 27.5977 58.3652C27.7578 58.541 27.8691 58.7617 27.9316 59.0273C27.998 59.293 28.0312 59.6035 28.0312 59.959V66H26.9297L26.8242 65.3086C26.6641 65.5391 26.4492 65.7266 26.1797 65.8711C25.9141 66.0156 25.6094 66.0879 25.2656 66.0879ZM25.9219 64.9453C26.0469 64.9453 26.168 64.9141 26.2852 64.8516C26.4062 64.7852 26.5078 64.7051 26.5898 64.6113V62.0859C26.5117 62.1172 26.4238 62.1543 26.3262 62.1973C26.2285 62.2402 26.123 62.2969 26.0098 62.3672C25.9043 62.4336 25.8008 62.5137 25.6992 62.6074C25.5977 62.7012 25.5059 62.8125 25.4238 62.9414C25.3457 63.0703 25.2812 63.2168 25.2305 63.3809C25.1836 63.541 25.1602 63.7207 25.1602 63.9199C25.1602 64.2285 25.2207 64.4766 25.3418 64.6641C25.4629 64.8516 25.6562 64.9453 25.9219 64.9453ZM29.25 64.3125C29.25 64.1367 29.2656 63.9668 29.2969 63.8027C29.332 63.6387 29.3652 63.5078 29.3965 63.4102H30.4395C30.4395 63.7031 30.4531 63.9492 30.4805 64.1484C30.5117 64.3438 30.5605 64.5 30.627 64.6172C30.6934 64.7344 30.7812 64.8184 30.8906 64.8691C31.0039 64.9199 31.1406 64.9453 31.3008 64.9453C31.5234 64.9453 31.6855 64.8828 31.7871 64.7578C31.8887 64.6328 31.9395 64.4883 31.9395 64.3242C31.9395 64.2383 31.9277 64.1562 31.9043 64.0781C31.8809 64 31.8477 63.9219 31.8047 63.8438C31.7617 63.7617 31.709 63.6797 31.6465 63.5977C31.584 63.5156 31.5137 63.4258 31.4355 63.3281L30.3516 62.0508C30.2109 61.875 30.0742 61.6973 29.9414 61.5176C29.8125 61.334 29.6973 61.1465 29.5957 60.9551C29.498 60.7598 29.418 60.5566 29.3555 60.3457C29.2969 60.1348 29.2676 59.9121 29.2676 59.6777C29.2676 59.3652 29.3203 59.0938 29.4258 58.8633C29.5352 58.6328 29.6797 58.4414 29.8594 58.2891C30.043 58.1367 30.2539 58.0234 30.4922 57.9492C30.7305 57.875 30.9824 57.8379 31.248 57.8379C31.541 57.8379 31.8047 57.873 32.0391 57.9434C32.2734 58.0137 32.4746 58.1191 32.6426 58.2598C32.8105 58.4004 32.9395 58.5762 33.0293 58.7871C33.1191 58.9941 33.1641 59.2363 33.1641 59.5137C33.1641 59.7012 33.1465 59.8828 33.1113 60.0586C33.0801 60.2344 33.0488 60.3848 33.0176 60.5098H31.9922C31.9883 60.2441 31.9766 60.0117 31.957 59.8125C31.9375 59.6133 31.9004 59.4492 31.8457 59.3203C31.7949 59.1875 31.7227 59.0879 31.6289 59.0215C31.5391 58.9551 31.4199 58.9219 31.2715 58.9219C31.1426 58.9219 31.0352 58.9434 30.9492 58.9863C30.8633 59.0254 30.793 59.0781 30.7383 59.1445C30.6875 59.2109 30.6504 59.2852 30.627 59.3672C30.6074 59.4492 30.5977 59.5332 30.5977 59.6191C30.5977 59.8066 30.6426 59.9805 30.7324 60.1406C30.8223 60.3008 30.9414 60.4746 31.0898 60.6621L32.2734 62.0508C32.3594 62.1562 32.459 62.2852 32.5723 62.4375C32.6855 62.5859 32.793 62.752 32.8945 62.9355C32.9961 63.1152 33.082 63.3125 33.1523 63.5273C33.2227 63.7422 33.2578 63.9668 33.2578 64.2012C33.2578 64.4863 33.2129 64.7461 33.123 64.9805C33.0332 65.2109 32.9004 65.4082 32.7246 65.5723C32.5488 65.7363 32.332 65.8633 32.0742 65.9531C31.8203 66.043 31.5293 66.0879 31.2012 66.0879C30.9316 66.0879 30.6777 66.0586 30.4395 66C30.2012 65.9375 29.9941 65.8379 29.8184 65.7012C29.6426 65.5605 29.5039 65.377 29.4023 65.1504C29.3008 64.9238 29.25 64.6445 29.25 64.3125ZM36.375 66.0879C36.0273 66.0879 35.7188 66.0234 35.4492 65.8945C35.1836 65.7656 34.959 65.5645 34.7754 65.291C34.5918 65.0176 34.4531 64.668 34.3594 64.2422C34.2656 63.8125 34.2188 63.2969 34.2188 62.6953V61.1719C34.2188 60.6602 34.2559 60.2227 34.3301 59.8594C34.4082 59.4922 34.5078 59.1855 34.6289 58.9395C34.7539 58.6895 34.8965 58.4922 35.0566 58.3477C35.2207 58.2031 35.3887 58.0938 35.5605 58.0195C35.7324 57.9414 35.9023 57.8926 36.0703 57.873C36.2422 57.8496 36.4004 57.8379 36.5449 57.8379C36.8105 57.8379 37.0664 57.8789 37.3125 57.9609C37.5586 58.0391 37.7754 58.1758 37.9629 58.3711C38.1504 58.5625 38.2988 58.8203 38.4082 59.1445C38.5215 59.4688 38.5781 59.873 38.5781 60.3574C38.5781 60.5215 38.5723 60.6875 38.5605 60.8555C38.5527 61.0234 38.541 61.1895 38.5254 61.3535C38.5098 61.5137 38.4883 61.6699 38.4609 61.8223C38.4375 61.9746 38.4121 62.1152 38.3848 62.2441H35.707V63.0645C35.707 63.416 35.7207 63.7129 35.748 63.9551C35.7754 64.1934 35.8203 64.3867 35.8828 64.5352C35.9492 64.6797 36.0371 64.7852 36.1465 64.8516C36.2598 64.9141 36.4004 64.9453 36.5684 64.9453C36.6582 64.9453 36.7461 64.9277 36.832 64.8926C36.918 64.8535 36.9922 64.791 37.0547 64.7051C37.1211 64.6191 37.1738 64.5059 37.2129 64.3652C37.252 64.2207 37.2715 64.043 37.2715 63.832V63.5801H38.5078V63.8906C38.5078 64.6562 38.3242 65.2148 37.957 65.5664C37.5938 65.9141 37.0664 66.0879 36.375 66.0879ZM37.1953 61.248C37.1992 61.2051 37.2031 61.1484 37.207 61.0781C37.2109 61.0039 37.2129 60.9277 37.2129 60.8496C37.2168 60.7715 37.2188 60.6953 37.2188 60.6211C37.2188 60.543 37.2188 60.4766 37.2188 60.4219C37.2188 59.8906 37.1562 59.5078 37.0312 59.2734C36.9062 59.0391 36.7207 58.9219 36.4746 58.9219C36.3457 58.9219 36.2324 58.9531 36.1348 59.0156C36.0371 59.0742 35.957 59.1758 35.8945 59.3203C35.832 59.4609 35.7852 59.6484 35.7539 59.8828C35.7227 60.1172 35.707 60.4082 35.707 60.7559V61.248H37.1953ZM39.5273 67.5527C39.75 67.584 39.9551 67.5762 40.1426 67.5293C40.3301 67.4863 40.4902 67.4023 40.623 67.2773C40.7598 67.1523 40.8672 66.9863 40.9453 66.7793C41.0273 66.5762 41.0742 66.332 41.0859 66.0469L39.1758 57.9316H40.6816L41.5312 62.3965L41.7773 63.9375H41.8242L41.9941 62.3965L42.6797 57.9316H44.1387L42.4395 66.2988C42.3652 66.6855 42.2695 67.0234 42.1523 67.3125C42.0391 67.6016 41.8965 67.8418 41.7246 68.0332C41.5566 68.2246 41.3555 68.3672 41.1211 68.4609C40.8867 68.5586 40.6133 68.6074 40.3008 68.6074C40.0469 68.6074 39.7871 68.5586 39.5215 68.4609L39.5273 67.5527ZM47.7539 55.9922H49.2715V60.1816H51.0703V55.9922H52.5879V66H51.0703V61.377H49.2715V66H47.7539V55.9922ZM55.3359 66.0879C55.0859 66.0879 54.8633 66.0391 54.668 65.9414C54.4766 65.8398 54.3145 65.7031 54.1816 65.5312C54.0488 65.3594 53.9473 65.1562 53.877 64.9219C53.8105 64.6836 53.7773 64.4258 53.7773 64.1484C53.7773 63.8164 53.8184 63.5215 53.9004 63.2637C53.9824 63.0059 54.1016 62.7734 54.2578 62.5664C54.418 62.3594 54.6152 62.1719 54.8496 62.0039C55.084 61.832 55.3555 61.6699 55.6641 61.5176C55.8125 61.4434 55.9785 61.3691 56.1621 61.2949C56.3496 61.2168 56.5156 61.1504 56.6602 61.0957V60.0293C56.6602 59.873 56.6543 59.7285 56.6426 59.5957C56.6309 59.459 56.6016 59.3418 56.5547 59.2441C56.5117 59.1426 56.4453 59.0645 56.3555 59.0098C56.2656 58.9512 56.1426 58.9219 55.9863 58.9219C55.8809 58.9219 55.7773 58.9414 55.6758 58.9805C55.5781 59.0195 55.4902 59.0859 55.4121 59.1797C55.3379 59.2734 55.2773 59.3984 55.2305 59.5547C55.1875 59.7109 55.166 59.9043 55.166 60.1348V60.4863H54.0352C54 60.334 53.9727 60.1953 53.9531 60.0703C53.9375 59.9414 53.9297 59.8145 53.9297 59.6895C53.9297 59.3887 53.9805 59.123 54.082 58.8926C54.1875 58.6621 54.332 58.4688 54.5156 58.3125C54.7031 58.1562 54.9258 58.0391 55.1836 57.9609C55.4414 57.8789 55.7246 57.8379 56.0332 57.8379C56.4355 57.8379 56.7695 57.8828 57.0352 57.9727C57.3008 58.0586 57.5117 58.1895 57.668 58.3652C57.8281 58.541 57.9395 58.7617 58.002 59.0273C58.0684 59.293 58.1016 59.6035 58.1016 59.959V66H57L56.8945 65.3086C56.7344 65.5391 56.5195 65.7266 56.25 65.8711C55.9844 66.0156 55.6797 66.0879 55.3359 66.0879ZM55.9922 64.9453C56.1172 64.9453 56.2383 64.9141 56.3555 64.8516C56.4766 64.7852 56.5781 64.7051 56.6602 64.6113V62.0859C56.582 62.1172 56.4941 62.1543 56.3965 62.1973C56.2988 62.2402 56.1934 62.2969 56.0801 62.3672C55.9746 62.4336 55.8711 62.5137 55.7695 62.6074C55.668 62.7012 55.5762 62.8125 55.4941 62.9414C55.416 63.0703 55.3516 63.2168 55.3008 63.3809C55.2539 63.541 55.2305 63.7207 55.2305 63.9199C55.2305 64.2285 55.291 64.4766 55.4121 64.6641C55.5332 64.8516 55.7266 64.9453 55.9922 64.9453ZM59.6602 55.3418H61.1426V66H59.6602V55.3418ZM62.7188 55.3418H64.2012V66H62.7188V55.3418ZM68.4141 55.9922H69.9316V64.8047H72V66H68.4141V55.9922ZM73.9805 66.0879C73.7305 66.0879 73.5078 66.0391 73.3125 65.9414C73.1211 65.8398 72.959 65.7031 72.8262 65.5312C72.6934 65.3594 72.5918 65.1562 72.5215 64.9219C72.4551 64.6836 72.4219 64.4258 72.4219 64.1484C72.4219 63.8164 72.4629 63.5215 72.5449 63.2637C72.627 63.0059 72.7461 62.7734 72.9023 62.5664C73.0625 62.3594 73.2598 62.1719 73.4941 62.0039C73.7285 61.832 74 61.6699 74.3086 61.5176C74.457 61.4434 74.623 61.3691 74.8066 61.2949C74.9941 61.2168 75.1602 61.1504 75.3047 61.0957V60.0293C75.3047 59.873 75.2988 59.7285 75.2871 59.5957C75.2754 59.459 75.2461 59.3418 75.1992 59.2441C75.1562 59.1426 75.0898 59.0645 75 59.0098C74.9102 58.9512 74.7871 58.9219 74.6309 58.9219C74.5254 58.9219 74.4219 58.9414 74.3203 58.9805C74.2227 59.0195 74.1348 59.0859 74.0566 59.1797C73.9824 59.2734 73.9219 59.3984 73.875 59.5547C73.832 59.7109 73.8105 59.9043 73.8105 60.1348V60.4863H72.6797C72.6445 60.334 72.6172 60.1953 72.5977 60.0703C72.582 59.9414 72.5742 59.8145 72.5742 59.6895C72.5742 59.3887 72.625 59.123 72.7266 58.8926C72.832 58.6621 72.9766 58.4688 73.1602 58.3125C73.3477 58.1562 73.5703 58.0391 73.8281 57.9609C74.0859 57.8789 74.3691 57.8379 74.6777 57.8379C75.0801 57.8379 75.4141 57.8828 75.6797 57.9727C75.9453 58.0586 76.1562 58.1895 76.3125 58.3652C76.4727 58.541 76.584 58.7617 76.6465 59.0273C76.7129 59.293 76.7461 59.6035 76.7461 59.959V66H75.6445L75.5391 65.3086C75.3789 65.5391 75.1641 65.7266 74.8945 65.8711C74.6289 66.0156 74.3242 66.0879 73.9805 66.0879ZM74.6367 64.9453C74.7617 64.9453 74.8828 64.9141 75 64.8516C75.1211 64.7852 75.2227 64.7051 75.3047 64.6113V62.0859C75.2266 62.1172 75.1387 62.1543 75.041 62.1973C74.9434 62.2402 74.8379 62.2969 74.7246 62.3672C74.6191 62.4336 74.5156 62.5137 74.4141 62.6074C74.3125 62.7012 74.2207 62.8125 74.1387 62.9414C74.0605 63.0703 73.9961 63.2168 73.9453 63.3809C73.8984 63.541 73.875 63.7207 73.875 63.9199C73.875 64.2285 73.9355 64.4766 74.0566 64.6641C74.1777 64.8516 74.3711 64.9453 74.6367 64.9453ZM77.7246 57.9316H79.1367L79.7168 62.3027L79.8574 63.9375H79.9043L80.0801 62.3027L80.8535 57.9316H82.1016L82.8984 62.3027L83.1152 63.9375H83.1621L83.2617 62.3027L83.7715 57.9316H85.1543L83.8477 66H82.4824L81.6445 61.5117L81.457 60.2754H81.4102L81.2402 61.5117L80.4785 66H79.0547L77.7246 57.9316Z" fill="#505050"/>
<rect x="38" y="31" width="22" height="3" fill="#4B9CD3"/>
<rect x="36" y="46" width="25" height="3" fill="#4B9CD3"/>
<rect x="38" y="44" width="22" height="3" fill="#4B9CD3"/>
<rect x="40" y="34" width="2" height="10" fill="#4B9CD3"/>
<rect x="45" y="34" width="2" height="10" fill="#4B9CD3"/>
<rect x="51" y="34" width="2" height="10" fill="#4B9CD3"/>
<rect x="56" y="34" width="2" height="10" fill="#4B9CD3"/>
<path d="M40 32V32C41.5501 21.6658 56.4499 21.6658 58 32V32" stroke="#4B9CD3"/>
<path d="M42 30L49.9823 30.5324L57.9645 31.0647" stroke="#4B9CD3" stroke-width="2"/>
<path d="M40 31L48.5 30.5L57 30" stroke="#4B9CD3" stroke-width="2"/>
<path d="M41 29H49H57" stroke="#4B9CD3" stroke-width="2"/>
<path d="M42 28L49 28L56 28" stroke="#4B9CD3" stroke-width="2"/>
<path d="M43 27L49 27L55 27" stroke="#4B9CD3" stroke-width="2"/>
<path d="M45 26H49L53 26" stroke="#4B9CD3" stroke-width="2"/>
<path d="M44 26.1934L47.5 25.5967L51 25" stroke="#4B9CD3" stroke-width="2"/>
<path d="M45 26L49 26L53 26" stroke="#4B9CD3" stroke-width="2"/>
<path d="M47 25L49.5 25.5L52 26" stroke="#4B9CD3" stroke-width="2"/>
<path d="M50 26L52.5 26.5L55 27" stroke="#4B9CD3" stroke-width="2"/>
<path d="M47 25L49 26L51 27" stroke="#4B9CD3" stroke-width="2"/>
<rect x="48" y="19" width="2" height="5" fill="#4B9CD3"/>
<path d="M54.5 17H49V19H54.5L53.5 18L54.5 17Z" stroke="#4B9CD3" stroke-width="2"/>
<rect x="-13.5" y="-2.5" width="127" height="118" rx="4.5" stroke="#7B61FF" stroke-dasharray="10 5"/>
</svg>
